<svg width="32" height="32" viewBox="0 0 32 32" fill="none" xmlns="http://www.w3.org/2000/svg">
  <rect width="32" height="32" rx="6" fill="#6366F1"/>
  <path d="M8 10C8 8.89543 8.89543 8 10 8H14C15.1046 8 16 8.89543 16 10V22C16 23.1046 15.1046 24 14 24H10C8.89543 24 8 23.1046 8 22V10Z" fill="white"/>
  <path d="M18 10C18 8.89543 18.8954 8 20 8H22C23.1046 8 24 8.89543 24 10V14C24 15.1046 23.1046 16 22 16H20C18.8954 16 18 15.1046 18 14V10Z" fill="white"/>
  <path d="M20 18C18.8954 18 18 18.8954 18 20V22C18 23.1046 18.8954 24 20 24H22C23.1046 24 24 23.1046 24 22V20C24 18.8954 23.1046 18 22 18H20Z" fill="white"/>
</svg>